[Header]
FileType HTR
DataType HTRS
FileVersion 1
NumSegments 64
NumFrames 4
DataFrameRate 24
EulerRotationOrder ZYX
CalibrationUnits mm
RotationUnits Degrees
GlobalAxisofGravity Y
BoneLengthAxis Y
ScaleFactor 1.0
[SegmentNames&Hierarchy]
Hips	GLOBAL
Spine	Hips
Spine1	Spine
Spine2	Spine1
Neck	Spine2
Head	Neck
LeftEye	Head
RightEye	Head
LeftShoulder	Spine2
LeftArm	LeftShoulder
LeftForeArm	LeftArm
LeftHand	LeftForeArm
LeftHandThumb1	LeftHand
LeftHandThumb2	LeftHandThumb1
LeftHandThumb3	LeftHandThumb2
LeftHandThumb4	LeftHandThumb3
LeftHandIndex1	LeftHand
LeftHandIndex2	LeftHandIndex1
LeftHandIndex3	LeftHandIndex2
LeftHandIndex4	LeftHandIndex3
LeftHandMiddle1	LeftHand
LeftHandMiddle2	LeftHandMiddle1
LeftHandMiddle3	LeftHandMiddle2
LeftHandMiddle4	LeftHandMiddle3
LeftHandRing1	LeftHand
LeftHandRing2	LeftHandRing1
LeftHandRing3	LeftHandRing2
LeftHandRing4	LeftHandRing3
LeftHandPinky1	LeftHand
LeftHandPinky2	LeftHandPinky1
LeftHandPinky3	LeftHandPinky2
LeftHandPinky4	LeftHandPinky3
RightShoulder	Spine2
RightArm	RightShoulder
RightForeArm	RightArm
RightHand	RightForeArm
RightHandPinky1	RightHand
RightHandPinky2	RightHandPinky1
RightHandPinky3	RightHandPinky2
RightHandPinky4	RightHandPinky3
RightHandRing1	RightHand
RightHandRing2	RightHandRing1
RightHandRing3	RightHandRing2
RightHandRing4	RightHandRing3
RightHandMiddle1	RightHand
RightHandMiddle2	RightHandMiddle1
RightHandMiddle3	RightHandMiddle2
RightHandMiddle4	RightHandMiddle3
RightHandIndex1	RightHand
RightHandIndex2	RightHandIndex1
RightHandIndex3	RightHandIndex2
RightHandIndex4	RightHandIndex3
RightHandThumb1	RightHand
RightHandThumb2	RightHandThumb1
RightHandThumb3	RightHandThumb2
RightHandThumb4	RightHandThumb3
LeftUpLeg	Hips
LeftLeg	LeftUpLeg
LeftFoot	LeftLeg
LeftToeBase	LeftFoot
RightUpLeg	Hips
RightLeg	RightUpLeg
RightFoot	RightLeg
RightToeBase	RightFoot
[BasePosition]
Hips	0	0	0	0	0	0	1
Spine	0	0	0	0	0	0	1
Spine1	0	0	0	0	0	0	1
Spine2	0	0	0	0	0	0	1
Neck	0	0	0	0	0	0	1
Head	0	0	0	0	0	0	1
LeftEye	0	0	0	0	0	0	1
RightEye	0	0	0	0	0	0	1
LeftShoulder	0	0	0	0	0	0	1
LeftArm	0	0	0	0	0	0	1
LeftForeArm	0	0	0	0	0	0	1
LeftHand	0	0	0	0	0	0	1
LeftHandThumb1	0	0	0	0	0	0	1
LeftHandThumb2	0	0	0	0	0	0	1
LeftHandThumb3	0	0	0	0	0	0	1
LeftHandThumb4	0	0	0	0	0	0	1
LeftHandIndex1	0	0	0	0	0	0	1
LeftHandIndex2	0	0	0	0	0	0	1
LeftHandIndex3	0	0	0	0	0	0	1
LeftHandIndex4	0	0	0	0	0	0	1
LeftHandMiddle1	0	0	0	0	0	0	1
LeftHandMiddle2	0	0	0	0	0	0	1
LeftHandMiddle3	0	0	0	0	0	0	1
LeftHandMiddle4	0	0	0	0	0	0	1
LeftHandRing1	0	0	0	0	0	0	1
LeftHandRing2	0	0	0	0	0	0	1
LeftHandRing3	0	0	0	0	0	0	1
LeftHandRing4	0	0	0	0	0	0	1
LeftHandPinky1	0	0	0	0	0	0	1
LeftHandPinky2	0	0	0	0	0	0	1
LeftHandPinky3	0	0	0	0	0	0	1
LeftHandPinky4	0	0	0	0	0	0	1
RightShoulder	0	0	0	0	0	0	1
RightArm	0	0	0	0	0	0	1
RightForeArm	0	0	0	0	0	0	1
RightHand	0	0	0	0	0	0	1
RightHandPinky1	0	0	0	0	0	0	1
RightHandPinky2	0	0	0	0	0	0	1
RightHandPinky3	0	0	0	0	0	0	1
RightHandPinky4	0	0	0	0	0	0	1
RightHandRing1	0	0	0	0	0	0	1
RightHandRing2	0	0	0	0	0	0	1
RightHandRing3	0	0	0	0	0	0	1
RightHandRing4	0	0	0	0	0	0	1
RightHandMiddle1	0	0	0	0	0	0	1
RightHandMiddle2	0	0	0	0	0	0	1
RightHandMiddle3	0	0	0	0	0	0	1
RightHandMiddle4	0	0	0	0	0	0	1
RightHandIndex1	0	0	0	0	0	0	1
RightHandIndex2	0	0	0	0	0	0	1
RightHandIndex3	0	0	0	0	0	0	1
RightHandIndex4	0	0	0	0	0	0	1
RightHandThumb1	0	0	0	0	0	0	1
RightHandThumb2	0	0	0	0	0	0	1
RightHandThumb3	0	0	0	0	0	0	1
RightHandThumb4	0	0	0	0	0	0	1
LeftUpLeg	0	0	0	0	0	0	1
LeftLeg	0	0	0	0	0	0	1
LeftFoot	0	0	0	0	0	0	1
LeftToeBase	0	0	0	0	0	0	1
RightUpLeg	0	0	0	0	0	0	1
RightLeg	0	0	0	0	0	0	1
RightFoot	0	0	0	0	0	0	1
RightToeBase	0	0	0	0	0	0	1
[Hips]
115	-31.86278915	974.9835815	811.1709595	-538.6603394	183.4222565	-183.3008728	1.0
116	-20.56425095	972.2699585	793.3685913	-540.838623	196.9315338	-182.1860657	1.0
117	-15.21043873	967.9113159	770.1421509	-542.3966675	207.9168396	-180.8845215	1.0
118	-13.80280018	965.0198975	742.0247803	-542.8488159	216.8290253	-180.8681335	1.0
[Spine]
115	0	101.8159943	1.315000057	2.119783878	-0.7279622555	-0.7135875225	1.0
116	0	101.8159943	1.315000057	1.746780157	-0.2535620034	-0.9629416466	1.0
117	0	101.8159943	1.315000057	1.398710251	0.05070956424	-0.9458624721	1.0
118	0	101.8159943	1.315000057	1.143296838	0.4589084387	-0.6139463186	1.0
[Spine1]
115	0	100.8349991	-10.00800037	4.252252102	-1.430082083	-1.954222918	1.0
116	0	100.8349991	-10.00800037	3.498157978	-0.4687491059	-2.263417721	1.0
117	0	100.8349991	-10.00800037	2.795978069	0.1361681968	-2.222793579	1.0
118	0	100.8349991	-10.00800037	2.277499437	1.01372993	-1.845364809	1.0
[Spine2]
115	0	91	-13.73399925	4.252254009	-1.430081487	-1.954225183	1.0
116	0	91	-13.73399925	3.498159647	-0.4687558711	-2.263417482	1.0
117	0	91	-13.73399925	2.795977831	0.1361775845	-2.222793818	1.0
118	0	91	-13.73399925	2.277499914	1.013723493	-1.845364928	1.0
[Neck]
115	0	166.7169952	-25.16200066	14.6562624	1.859751821	-0.5204432607	1.0
116	0	166.7169952	-25.16200066	15.33922768	3.552575827	-1.977059722	1.0
117	0	166.7169952	-25.16200066	15.15531158	4.953224659	-3.351437807	1.0
118	0	166.7169952	-25.16200066	15.10713577	5.387078762	-3.166294575	1.0
[Head]
115	0	96.17900085	16.84999847	-11.43451977	6.957019806	0.3802317381	1.0
116	0	96.17900085	16.84999847	-9.837231636	14.11278439	-1.688717008	1.0
117	0	96.17900085	16.84999847	-8.953491211	19.57335091	-3.284268618	1.0
118	0	96.17900085	16.84999847	-8.656573296	23.0380764	-4.093641758	1.0
[LeftEye]
115	30.6760006	64.09500122	92.83599854	0	0	0	1.0
116	30.6760006	64.09500122	92.83599854	0	0	0	1.0
117	30.6760006	64.09500122	92.83599854	0	0	0	1.0
118	30.6760006	64.09500122	92.83599854	0	0	0	1.0
[RightEye]
115	-30.6760006	64.09500122	92.83499908	0	0	0	1.0
116	-30.6760006	64.09500122	92.83499908	0	0	0	1.0
117	-30.6760006	64.09500122	92.83499908	0	0	0	1.0
118	-30.6760006	64.09500122	92.83499908	0	0	0	1.0
[LeftShoulder]
115	45.70400238	109.4599991	-26.28000069	-4.384313583	-20.75752068	15.32148838	1.0
116	45.70400238	109.4599991	-26.28000069	-4.203701496	-19.81879044	15.33387661	1.0
117	45.70400238	109.4599991	-26.28000069	-3.571104527	-18.92632294	13.72525215	1.0
118	45.70400238	109.4599991	-26.28000069	-3.447260141	-19.06300354	13.25442219	1.0
[LeftArm]
115	105.923996	-5.24600029	-22.32099915	-5.253083706	-5.290360928	-41.23121262	1.0
116	105.923996	-5.24600029	-22.32099915	-11.26501369	-1.756512046	-41.65942001	1.0
117	105.923996	-5.24600029	-22.32099915	-19.6673584	3.345214367	-40.81954193	1.0
118	105.923996	-5.24600029	-22.32099915	-27.60062408	7.984986305	-40.05367279	1.0
[LeftForeArm]
115	278.414978	-0.0009999999311	0	-544.543457	-62.24914169	541.7937622	1.0
116	278.414978	-0.0009999999311	0	-546.1282349	-66.90700531	543.1689453	1.0
117	278.414978	-0.0009999999311	0	-547.9508057	-69.14609528	544.8265381	1.0
118	278.414978	-0.0009999999311	0	-548.3356934	-67.16051483	545.0802612	1.0
[LeftHand]
115	283.2879944	0	0	14.50393677	-4.377677917	0.8371962905	1.0
116	283.2879944	0	0	17.49545479	-0.9704793692	4.744134903	1.0
117	283.2879944	0	0	16.51609039	1.677382112	6.542177677	1.0
118	283.2879944	0	0	13.39916992	4.425021172	6.374063492	1.0
[LeftHandThumb1]
115	24.6609993	-15.75	26.8239994	17.02222061	-19.78071404	3.603515148	1.0
116	24.6609993	-15.75	26.8239994	15.91335106	-19.54853821	2.515860796	1.0
117	24.6609993	-15.75	26.8239994	14.30745506	-18.22927094	1.31424284	1.0
118	24.6609993	-15.75	26.8239994	12.42884827	-16.26127052	0.05501968786	1.0
[LeftHandThumb2]
115	32.29800034	-18.64699936	18.64699936	3.490582228	23.13874435	-18.84186363	1.0
116	32.29800034	-18.64699936	18.64699936	2.351232052	24.33173752	-21.38895416	1.0
117	32.29800034	-18.64699936	18.64699936	1.169627786	25.40285873	-24.20534325	1.0
118	32.29800034	-18.64699936	18.64699936	-0.0230831895	26.33941841	-27.20844841	1.0
[LeftHandThumb3]
115	26.52600098	-15.31499958	15.31499958	3.601811159e-06	-8.438974328e-05	-6.943767221e-05	1.0
116	26.52600098	-15.31499958	15.31499958	3.601811159e-06	-8.438974328e-05	-6.943767221e-05	1.0
117	26.52600098	-15.31499958	15.31499958	3.601811159e-06	-8.438974328e-05	-6.943767221e-05	1.0
118	26.52600098	-15.31499958	15.31499958	3.601811159e-06	-8.438974328e-05	-6.943767221e-05	1.0
[LeftHandThumb4]
115	19.54599953	-11.28499985	11.28499985	0	0	0	1.0
116	19.54599953	-11.28499985	11.28499985	0	0	0	1.0
117	19.54599953	-11.28499985	11.28499985	0	0	0	1.0
118	19.54599953	-11.28499985	11.28499985	0	0	0	1.0
[LeftHandIndex1]
115	91.09299469	-5.170999527	22.60099792	-1.739420533	-5.54897213	-45.04237747	1.0
116	91.09299469	-5.170999527	22.60099792	-1.796218634	-5.868578434	-48.76525879	1.0
117	91.09299469	-5.170999527	22.60099792	-1.823329806	-6.204349041	-52.76612091	1.0
118	91.09299469	-5.170999527	22.60099792	-1.810820699	-6.561989307	-57.06246948	1.0
[LeftHandIndex2]
115	36.76399994	0	0	-0.536440134	-6.280517101	-67.89079285	1.0
116	36.76399994	0	0	-0.01258117612	-7.322903633	-76.12421417	1.0
117	36.76399994	0	0	0.6710284352	-8.295877457	-84.53256226	1.0
118	36.76399994	0	0	1.488792181	-9.15527153	-92.93210602	1.0
[LeftHandIndex3]
115	28.83100128	0	0	-1.432096042e-06	3.907105395e-07	1.552835329e-06	1.0
116	28.83100128	0	0	-1.432096042e-06	3.907105395e-07	1.552835329e-06	1.0
117	28.83100128	0	0	-1.432096042e-06	3.907105395e-07	1.552835329e-06	1.0
118	28.83100128	0	0	-1.432096042e-06	3.907105395e-07	1.552835329e-06	1.0
[LeftHandIndex4]
115	23.92700005	0	0	0	0	0	1.0
116	23.92700005	0	0	0	0	0	1.0
117	23.92700005	0	0	0	0	0	1.0
118	23.92700005	0	0	0	0	0	1.0
[LeftHandMiddle1]
115	95.33399963	0	0	-1.882647395	-4.421767235	-52.80526352	1.0
116	95.33399963	0	0	-1.84823072	-4.901797295	-56.45770264	1.0
117	95.33399963	0	0	-1.778205991	-5.407448769	-60.3351593	1.0
118	95.33399963	0	0	-1.666711211	-5.936283112	-64.44451904	1.0
[LeftHandMiddle2]
115	36.98199844	0	0	0.1276156604	-6.65885973	-64.04146576	1.0
116	36.98199844	0	0	0.577409029	-7.383955479	-71.07704926	1.0
117	36.98199844	0	0	1.118268609	-8.053215027	-78.17905426	1.0
118	36.98199844	0	0	1.730375409	-8.643206596	-85.19921112	1.0
[LeftHandMiddle3]
115	29.50900078	0	0	0	-3.180554719e-15	-7.951386796e-16	1.0
116	29.50900078	0	0	0	-3.180554719e-15	-7.951386796e-16	1.0
117	29.50900078	0	0	0	-3.180554719e-15	-7.951386796e-16	1.0
118	29.50900078	0	0	0	-3.180554719e-15	-7.951386796e-16	1.0
[LeftHandMiddle4]
115	28.3390007	0	0	0	0	0	1.0
116	28.3390007	0	0	0	0	0	1.0
117	28.3390007	0	0	0	0	0	1.0
118	28.3390007	0	0	0	0	0	1.0
[LeftHandRing1]
115	91.04499817	-0.4390000105	-18.65100098	-2.98857975	0.2095547467	-61.64490509	1.0
116	91.04499817	-0.4390000105	-18.65100098	-2.80589962	-0.5071257949	-65.08760834	1.0
117	91.04499817	-0.4390000105	-18.65100098	-2.585116625	-1.251695037	-68.7277298	1.0
118	91.04499817	-0.4390000105	-18.65100098	-2.30568099	-2.063639402	-72.96971893	1.0
[LeftHandRing2]
115	31.54000092	0	0	4.88446331	-2.658372641	-70.522789	1.0
116	31.54000092	0	0	5.374370575	-2.488469839	-76.53871918	1.0
117	31.54000092	0	0	5.842807293	-2.268708706	-82.54003906	1.0
118	31.54000092	0	0	6.27622509	-2.007540226	-88.40753937	1.0
[LeftHandRing3]
115	29.37700081	0	0	1.590277359e-15	3.180554719e-15	-7.951386796e-16	1.0
116	29.37700081	0	0	1.590277359e-15	3.180554719e-15	-7.951386796e-16	1.0
117	29.37700081	0	0	1.590277359e-15	3.180554719e-15	-7.951386796e-16	1.0
118	29.37700081	0	0	1.590277359e-15	3.180554719e-15	-7.951386796e-16	1.0
[LeftHandRing4]
115	26.47500038	0	0	0	0	0	1.0
116	26.47500038	0	0	0	0	0	1.0
117	26.47500038	0	0	0	0	0	1.0
118	26.47500038	0	0	0	0	0	1.0
[LeftHandPinky1]
115	80.77799988	-4.887000084	-38.06099701	-3.416681767	3.07212925	-57.78915024	1.0
116	80.77799988	-4.887000084	-38.06099701	-3.222844124	1.915989876	-61.17720795	1.0
117	80.77799988	-4.887000084	-38.06099701	-2.994331121	0.7262309194	-64.76623535	1.0
118	80.77799988	-4.887000084	-38.06099701	-2.683493376	-0.6277336478	-69.74971771	1.0
[LeftHandPinky2]
115	36	0	0	8.512462616	-0.8031189442	-80.35261536	1.0
116	36	0	0	8.786812782	-0.2759765089	-84.169487	1.0
117	36	0	0	9.083106995	0.4135399759	-88.97921753	1.0
118	36	0	0	9.373792648	1.314293981	-95.03455353	1.0
[LeftHandPinky3]
115	21.14200211	0	0	3.226109357e-06	2.925280342e-06	-5.739977951e-06	1.0
116	21.14200211	0	0	3.226109357e-06	2.925280342e-06	-5.739977951e-06	1.0
117	21.14200211	0	0	3.226109357e-06	2.925280342e-06	-5.739977951e-06	1.0
118	21.14200211	0	0	3.226109357e-06	2.925280342e-06	-5.739977951e-06	1.0
[LeftHandPinky4]
115	19.75699997	0	0	0	0	0	1.0
116	19.75699997	0	0	0	0	0	1.0
117	19.75699997	0	0	0	0	0	1.0
118	19.75699997	0	0	0	0	0	1.0
[RightShoulder]
115	-45.70000076	109.4620056	-26.28000069	0.4042052627	1.355539203	5.274972916	1.0
116	-45.70000076	109.4620056	-26.28000069	0.5509470701	4.159694672	5.269293308	1.0
117	-45.70000076	109.4620056	-26.28000069	0.345767647	5.159490108	2.786894083	1.0
118	-45.70000076	109.4620056	-26.28000069	0.2557349503	4.092522144	1.699854493	1.0
[RightArm]
115	-105.9280014	-5.248000145	-22.32099915	-316.2787781	65.83217621	-275.0886841	1.0
116	-105.9280014	-5.248000145	-22.32099915	-313.275177	62.68428421	-273.7980957	1.0
117	-105.9280014	-5.248000145	-22.32099915	-309.2166748	59.59457397	-269.3388672	1.0
118	-105.9280014	-5.248000145	-22.32099915	-305.4617615	57.67182159	-265.4475708	1.0
[RightForeArm]
115	-278.414978	0	0	2.268554688	101.3456421	3.784515381	1.0
116	-278.414978	0	0	2.26361084	104.2504349	3.515883684	1.0
117	-278.414978	0	0	2.43566823	106.2324753	3.477996826	1.0
118	-278.414978	0	0	2.668869019	107.3725586	3.546615601	1.0
[RightHand]
115	-283.2879944	0	0.0009999999311	14.04261589	9.960617065	15.26038551	1.0
116	-283.2879944	0	0.0009999999311	21.01131248	10.49770451	9.5157547	1.0
117	-283.2879944	0	0.0009999999311	26.63811302	11.43908119	6.087191582	1.0
118	-283.2879944	0	0.0009999999311	27.17579079	12.42128181	5.268930912	1.0
[RightHandPinky1]
115	-80.76699829	-4.885000229	-38.06000137	-2.315401554	5.712251186	76.25610352	1.0
116	-80.76699829	-4.885000229	-38.06000137	-1.98096931	7.84452343	83.08511353	1.0
117	-80.76699829	-4.885000229	-38.06000137	-1.518693209	9.790975571	89.65312958	1.0
118	-80.76699829	-4.885000229	-38.06000137	-0.9679923058	11.48991108	95.77580261	1.0
[RightHandPinky2]
115	-36	0	0.0009999999311	11.14092731	5.371647835	69.28655243	1.0
116	-36	0	0.0009999999311	11.86957932	5.054228783	72.90551758	1.0
117	-36	0	0.0009999999311	12.55977726	4.696695328	76.56686401	1.0
118	-36	0	0.0009999999311	13.19679642	4.29890728	80.24609375	1.0
[RightHandPinky3]
115	-21.14200211	0	0	-1.590277359e-15	0	-7.951386796e-16	1.0
116	-21.14200211	0	0	-1.590277359e-15	0	-7.951386796e-16	1.0
117	-21.14200211	0	0	-1.590277359e-15	0	-7.951386796e-16	1.0
118	-21.14200211	0	0	-1.590277359e-15	0	-7.951386796e-16	1.0
[RightHandPinky4]
115	-19.75699997	0	0	0	0	0	1.0
116	-19.75699997	0	0	0	0	0	1.0
117	-19.75699997	0	0	0	0	0	1.0
118	-19.75699997	0	0	0	0	0	1.0
[RightHandRing1]
115	-91.03599548	-0.4390000105	-18.65100098	-3.839303493	4.772185802	74.85401917	1.0
116	-91.03599548	-0.4390000105	-18.65100098	-3.709020853	6.096236706	81.311409	1.0
117	-91.03599548	-0.4390000105	-18.65100098	-3.470200539	7.309501171	87.53731537	1.0
118	-91.03599548	-0.4390000105	-18.65100098	-3.141878366	8.375809669	93.37283325	1.0
[RightHandRing2]
115	-31.54000092	0	0	5.164862156	4.144009113	57.62429047	1.0
116	-31.54000092	0	0	5.769410133	4.190989017	62.44206619	1.0
117	-31.54000092	0	0	6.360028267	4.193406582	67.2149353	1.0
118	-31.54000092	0	0	6.930286884	4.151211262	71.9513092	1.0
[RightHandRing3]
115	-29.37700081	0	0	5.740008078e-07	-7.531911024e-07	-2.69121324e-06	1.0
116	-29.37700081	0	0	5.740008078e-07	-7.531911024e-07	-2.69121324e-06	1.0
117	-29.37700081	0	0	5.740008078e-07	-7.531911024e-07	-2.69121324e-06	1.0
118	-29.37700081	0	0	5.740008078e-07	-7.531911024e-07	-2.69121324e-06	1.0
[RightHandRing4]
115	-26.47500038	0	0	0	0	0	1.0
116	-26.47500038	0	0	0	0	0	1.0
117	-26.47500038	0	0	0	0	0	1.0
118	-26.47500038	0	0	0	0	0	1.0
[RightHandMiddle1]
115	-95.32500458	0	0	-2.401684284	5.113478184	69.5072403	1.0
116	-95.32500458	0	0	-2.037996769	5.748372555	76.25310516	1.0
117	-95.32500458	0	0	-1.603397608	6.323601246	82.72327423	1.0
118	-95.32500458	0	0	-1.127623558	6.826891899	88.74555206	1.0
[RightHandMiddle2]
115	-36.98199844	0	0	-1.695243716	5.022352219	60.04963303	1.0
116	-36.98199844	0	0	-1.598755956	5.569975376	65.94817352	1.0
117	-36.98199844	0	0	-1.418297172	6.113987923	72.07244873	1.0
118	-36.98199844	0	0	-1.151818991	6.636012554	78.30899048	1.0
[RightHandMiddle3]
115	-29.50900078	0	0	1.856611448e-06	-0.002022909233	1.577868488e-06	1.0
116	-29.50900078	0	0	1.856611448e-06	-0.002022909233	1.577868488e-06	1.0
117	-29.50900078	0	0	1.856611448e-06	-0.002022909233	1.577868488e-06	1.0
118	-29.50900078	0	0	1.856611448e-06	-0.002022909233	1.577868488e-06	1.0
[RightHandMiddle4]
115	-28.3390007	0	0.0009999999311	0	0	0	1.0
116	-28.3390007	0	0.0009999999311	0	0	0	1.0
117	-28.3390007	0	0.0009999999311	0	0	0	1.0
118	-28.3390007	0	0.0009999999311	0	0	0	1.0
[RightHandIndex1]
115	-91.08300018	-5.167999744	22.60099792	-0.223877728	1.533018947	70.203125	1.0
116	-91.08300018	-5.167999744	22.60099792	0.4284404516	1.643802047	78.22236633	1.0
117	-91.08300018	-5.167999744	22.60099792	1.136305809	1.717729688	85.85495758	1.0
118	-91.08300018	-5.167999744	22.60099792	1.853006244	1.764830112	92.88323212	1.0
[RightHandIndex2]
115	-36.76399994	0	0	-2.91531992	3.814652443	60.70095062	1.0
116	-36.76399994	0	0	-2.930134296	4.487717152	66.7130127	1.0
117	-36.76399994	0	0	-2.848781109	5.141569138	72.70822144	1.0
118	-36.76399994	0	0	-2.671378136	5.764025211	78.61170197	1.0
[RightHandIndex3]
115	-28.83100128	0	0	-3.180554719e-15	0	0	1.0
116	-28.83100128	0	0	-3.180554719e-15	0	0	1.0
117	-28.83100128	0	0	-3.180554719e-15	0	0	1.0
118	-28.83100128	0	0	-3.180554719e-15	0	0	1.0
[RightHandIndex4]
115	-23.92700005	0	0	0	0	0	1.0
116	-23.92700005	0	0	0	0	0	1.0
117	-23.92700005	0	0	0	0	0	1.0
118	-23.92700005	0	0	0	0	0	1.0
[RightHandThumb1]
115	-24.64799881	-15.72700024	26.82600021	6.549280643	13.69837856	-5.841678619	1.0
116	-24.64799881	-15.72700024	26.82600021	6.655117512	13.64289188	-3.195987701	1.0
117	-24.64799881	-15.72700024	26.82600021	6.792732239	13.57097054	-0.7777311206	1.0
118	-24.64799881	-15.72700024	26.82600021	6.958715916	13.49167442	1.305559039	1.0
[RightHandThumb2]
115	-32.29800034	-18.64699936	18.64699936	4.601260662	-24.25055695	34.78826904	1.0
116	-32.29800034	-18.64699936	18.64699936	3.474745035	-26.62654877	36.6353569	1.0
117	-32.29800034	-18.64699936	18.64699936	2.374114037	-28.88238335	38.36214066	1.0
118	-32.29800034	-18.64699936	18.64699936	1.381853938	-30.96214294	39.89961243	1.0
[RightHandThumb3]
115	-26.52600098	-15.31399918	15.31399918	-3.81245151e-08	-0.00121095567	-0.001221005921	1.0
116	-26.52600098	-15.31399918	15.31399918	-3.81245151e-08	-0.00121095567	-0.001221005921	1.0
117	-26.52600098	-15.31399918	15.31399918	-3.81245151e-08	-0.00121095567	-0.001221005921	1.0
118	-26.52600098	-15.31399918	15.31399918	-3.81245151e-08	-0.00121095567	-0.001221005921	1.0
[RightHandThumb4]
115	-19.54599953	-11.28499985	11.28499985	0	0	0	1.0
116	-19.54599953	-11.28499985	11.28499985	0	0	0	1.0
117	-19.54599953	-11.28499985	11.28499985	0	0	0	1.0
118	-19.54599953	-11.28499985	11.28499985	0	0	0	1.0
[LeftUpLeg]
115	82.07800293	-67.51699829	-15.99599934	-24.13387489	12.08777618	1.303396225	1.0
116	82.07800293	-67.51699829	-15.99599934	-19.21113586	11.45788574	1.672313809	1.0
117	82.07800293	-67.51699829	-15.99599934	-16.48624802	12.35790539	2.091700792	1.0
118	82.07800293	-67.51699829	-15.99599934	-16.68711281	13.93793106	2.913370848	1.0
[LeftLeg]
115	0	-443.7049866	2.845999956	42.73350143	3.635188103	6.408412457	1.0
116	0	-443.7049866	2.845999956	42.9255867	-0.564058423	4.558366776	1.0
117	0	-443.7049866	2.845999956	43.8277092	-5.297656059	0.07414417714	1.0
118	0	-443.7049866	2.845999956	44.77494431	-1.622798324	3.119590521	1.0
[LeftFoot]
115	0	-444.2789917	-29.8219986	-19.78030014	2.071805954	-3.930747509	1.0
116	0	-444.2789917	-29.8219986	-22.67388344	-0.3061494529	-4.522265434	1.0
117	0	-444.2789917	-29.8219986	-25.63048744	-0.3316401541	-4.102176666	1.0
118	0	-444.2789917	-29.8219986	-25.78332901	-0.8499859571	-6.594453335	1.0
[LeftToeBase]
115	0	-87.28699493	107.1060028	-1.872018456	-1.297601557e-06	2.24825817e-06	1.0
116	0	-87.28699493	107.1060028	-1.515097857	-1.03797197e-06	1.562281341e-06	1.0
117	0	-87.28699493	107.1060028	-1.239495039	-4.11054225e-06	-4.978902624e-08	1.0
118	0	-87.28699493	107.1060028	-1.422949195	6.334445516e-06	1.277756837e-06	1.0
[RightUpLeg]
115	-82.07800293	-67.51699829	-15.99599934	-27.6814785	-12.32784843	-6.019753456	1.0
116	-82.07800293	-67.51699829	-15.99599934	-22.19647408	-11.52715015	-8.812504768	1.0
117	-82.07800293	-67.51699829	-15.99599934	-16.77835464	-11.32740879	-12.52895641	1.0
118	-82.07800293	-67.51699829	-15.99599934	-11.09794617	-12.28627014	-14.72071648	1.0
[RightLeg]
115	0	-443.7049866	2.861999989	52.48236084	-2.422774792	-7.326429367	1.0
116	0	-443.7049866	2.861999989	56.66207123	-0.4974706769	-10.35143375	1.0
117	0	-443.7049866	2.861999989	55.45595169	-0.3039775491	-14.46484184	1.0
118	0	-443.7049866	2.861999989	49.40681076	0.7514368892	-13.34592056	1.0
[RightFoot]
115	0	-444.2770081	-29.83799934	-1.07874012	-10.79674625	10.67570591	1.0
116	0	-444.2770081	-29.83799934	2.188967228	-11.9849453	8.275114059	1.0
117	0	-444.2770081	-29.83799934	6.877900124	-12.59892941	6.639183044	1.0
118	0	-444.2770081	-29.83799934	7.441060543	-10.28077126	9.031799316	1.0
[RightToeBase]
115	0	-87.28699493	107.1060028	-7.589174271	0.08199677616	0.6484200358	1.0
116	0	-87.28699493	107.1060028	-10.12944221	1.83744869e-05	-6.431535439e-06	1.0
117	0	-87.28699493	107.1060028	-13.57680225	-1.577855801e-05	-2.650059741e-06	1.0
118	0	-87.28699493	107.1060028	-18.84200668	-6.693448995e-06	-3.153269006e-07	1.0
[EndOfFile]
